Results
version=1
nRows=19
nColumns=24
inDegrees=yes
endheader
time	pelvis_tilt	pelvis_list	pelvis_rotation	pelvis_tx	pelvis_ty	pelvis_tz	hip_flexion_r	hip_adduction_r	hip_rotation_r	knee_angle_r	ankle_angle_r	subtalar_angle_r	mtp_angle_r	hip_flexion_l	hip_adduction_l	hip_rotation_l	knee_angle_l	ankle_angle_l	subtalar_angle_l	mtp_angle_l	lumbar_extension	lumbar_bending	lumbar_rotation
      1.52533333	     -7.21198457	      4.41309091	      0.18789054	      0.51152690	      0.99144578	      0.31738655	     26.05161125	     -6.33002160	     -0.30567512	    -65.39182906	     -0.22315481	    -10.72160022	      4.17763072	     14.63378678	     10.02589166	      3.44700191	     -9.43587923	     -0.23827735	    -15.78851813	      0.82335973	      5.82181331	     -2.67084772	      7.29070331
      1.52950000	     -7.13825237	      4.33731169	      0.31946269	      0.51625834	      0.99205751	      0.31716896	     26.54419439	     -6.23918458	     -0.28452654	    -64.94855315	      0.23402722	    -10.81374965	      4.09386331	     14.09231573	      9.97498107	      3.61967645	     -9.16173034	     -0.12333915	    -15.70646096	      0.79319333	      5.68748616	     -2.61028981	      7.11627350
      1.53366667	     -7.07670017	      4.25252295	      0.46479845	      0.52101647	      0.99263793	      0.31693021	     27.02629904	     -6.15128523	     -0.28956663	    -64.45104444	      0.68273210	    -10.87418414	      4.03409105	     13.56326651	      9.91255130	      3.77431813	     -8.88656114	     -0.00574615	    -15.61515223	      0.77274042	      5.60154635	     -2.52323186	      6.99119268
      1.53783333	     -6.98346063	      4.16610330	      0.61579595	      0.52575239	      0.99324074	      0.31669772	     27.45532711	     -6.06132925	     -0.29558685	    -63.89947515	      1.07059085	    -10.91260672	      3.75091603	     12.99919525	      9.84654069	      3.95867067	     -8.60609147	      0.09316563	    -15.51311273	      0.67338535	      5.44576189	     -2.44511916	      6.64716673
      1.54200000	     -6.93649483	      4.09048587	      0.75697109	      0.53046256	      0.99370961	      0.31648864	     27.93310601	     -5.97521716	     -0.28077750	    -63.32837585	      1.51405879	    -10.95245285	      3.68250252	     12.50674695	      9.78649696	      4.10470862	     -8.36594942	      0.24470434	    -15.42441054	      0.65238510	      5.36386150	     -2.39454464	      6.59146985
      1.54616667	     -6.84679977	      4.01965089	      0.89711309	      0.53519113	      0.99421228	      0.31627584	     28.34600522	     -5.90071718	     -0.27555213	    -62.71007750	      1.90393994	    -10.98115071	      3.54319451	     11.95776830	      9.72765040	      4.24616106	     -8.10276935	      0.38932335	    -15.30764711	      0.60981039	      5.22191872	     -2.32724578	      6.38385229
      1.55033333	     -6.75908793	      3.94474523	      1.04900474	      0.53991520	      0.99469820	      0.31605560	     28.73957776	     -5.82691284	     -0.28223717	    -62.04376697	      2.26668092	    -10.99425933	      3.39689392	     11.41566836	      9.66338651	      4.40211724	     -7.84766330	      0.51956524	    -15.19577098	      0.56719840	      5.08246285	     -2.26408709	      6.20469376
      1.55450000	     -6.73956776	      3.85853276	      1.20930714	      0.54460305	      0.99502745	      0.31582858	     29.19836295	     -5.74510087	     -0.29778267	    -61.34688115	      2.60830786	    -11.01472742	      3.33785378	     10.96481730	      9.58759827	      4.55951366	     -7.62246966	      0.64481881	    -15.09060964	      0.55296563	      5.02376996	     -2.18395875	      6.12021458
      1.55866667	     -6.64180684	      3.80990789	      1.35612743	      0.54931033	      0.99543153	      0.31561767	     29.55765588	     -5.69961947	     -0.29267502	    -60.61303048	      2.92672499	    -11.03607562	      3.18501050	     10.41936215	      9.54517926	      4.70015490	     -7.37625176	      0.79390539	    -14.97594122	      0.51427428	      4.86899929	     -2.15318186	      5.85433885
      1.56283333	     -6.56229438	      3.73544135	      1.51311067	      0.55400371	      0.99579227	      0.31539872	     29.91464731	     -5.63109346	     -0.30676499	    -59.83056540	      3.21417986	    -11.06486044	      3.02095365	      9.90391170	      9.47475370	      4.85484162	     -7.14856370	      0.93690047	    -14.85786061	      0.47638170	      4.73044130	     -2.08794552	      5.66324899
      1.56700000	     -6.52562201	      3.66470756	      1.67855309	      0.55867795	      0.99605172	      0.31518307	     30.30412762	     -5.57101504	     -0.32611683	    -59.01579030	      3.49226405	    -11.09568039	      2.94783873	      9.44757165	      9.40740103	      5.01304648	     -6.94387782	      1.07347669	    -14.75779057	      0.46300643	      4.65557757	     -2.03432647	      5.56908202
      1.57116667	     -6.47469994	      3.60694879	      1.83701297	      0.56335632	      0.99628142	      0.31496945	     30.66702999	     -5.52408440	     -0.34046967	    -58.17489741	      3.74100224	    -11.14760875	      2.86022416	      8.97297373	      9.35095655	      5.16437340	     -6.73254514	      1.22499313	    -14.65068352	      0.44818750	      4.54828773	     -1.98672076	      5.40299910
      1.57533333	     -6.41349120	      3.55893398	      1.99223072	      0.56803007	      0.99649270	      0.31476498	     31.00326107	     -5.48708313	     -0.35174224	    -57.29712189	      3.94844838	    -11.20421467	      2.76983774	      8.49142203	      9.30087691	      5.31061976	     -6.52646436	      1.37657544	    -14.54355876	      0.43481495	      4.43445301	     -1.95480002	      5.22802118
      1.57950000	     -6.32445288	      3.52228545	      2.13204112	      0.57270925	      0.99671687	      0.31458739	     31.29695171	     -5.45406971	     -0.34902983	    -56.38913963	      4.10352942	    -11.30428663	      2.58099496	      7.97393811	      9.25577139	      5.43390448	     -6.30554164	      1.53055199	    -14.41986524	      0.40508871	      4.26979783	     -1.92914273	      4.94888371
      1.58366667	     -6.29550753	      3.47721052	      2.30113398	      0.57736952	      0.99681728	      0.31436977	     31.63537072	     -5.43334103	     -0.38430578	    -55.45033694	      4.29232798	    -11.36402167	      2.49571756	      7.54085022	      9.20787580	      5.59592997	     -6.12671554	      1.68531366	    -14.32654013	      0.39536909	      4.19404811	     -1.90357532	      4.85344317
      1.58783333	     -6.23048272	      3.44052645	      2.45053826	      0.58203777	      0.99693572	      0.31417763	     31.91862551	     -5.40888217	     -0.39738837	    -54.47534191	      4.43030919	    -11.46322801	      2.39649950	      7.06370993	      9.16188084	      5.74402236	     -5.93597572	      1.84619010	    -14.22193447	      0.38514638	      4.07045048	     -1.87285833	      4.69212149
      1.59200000	     -6.15985657	      3.43201971	      2.57969966	      0.58671431	      0.99701669	      0.31402050	     32.19116518	     -5.40458028	     -0.39042712	    -53.48559854	      4.51980476	    -11.61194352	      2.20444463	      6.57741565	      9.13981180	      5.84543386	     -5.73642009	      2.00841120	    -14.11306687	      0.36192248	      3.93988199	     -1.88234896	      4.43012877
      1.59616667	     -6.16028473	      3.39840840	      2.74063284	      0.59136209	      0.99697176	      0.31382506	     32.51703451	     -5.39461544	     -0.42247222	    -52.46108619	      4.63993337	    -11.69405051	      2.10801252	      6.18543827	      9.09687483	      6.01046120	     -5.57406503	      2.17141472	    -14.01674608	      0.35377316	      3.88315117	     -1.87003615	      4.33705189
      1.60033333	     -6.08662343	      3.38315193	      2.87783816	      0.59603791	      0.99701766	      0.31365813	     32.74222632	     -5.38819655	     -0.43250935	    -51.39671284	      4.71306875	    -11.82872434	      1.99458964	      5.70451359	      9.06523922	      6.15227246	     -5.39568882	      2.33774854	    -13.90665313	      0.34451191	      3.75179448	     -1.85505017	      4.17996779
